<?xml version="1.0" standalone="no"?>
<!DOCTYPE svg PUBLIC "-//W3C//DTD SVG 20010904//EN"
 "http://www.w3.org/TR/2001/REC-SVG-20010904/DTD/svg10.dtd">
<svg version="1.0" xmlns="http://www.w3.org/2000/svg"
 width="103.000000pt" height="70.000000pt" viewBox="0 0 103.000000 70.000000"
 preserveAspectRatio="xMidYMid meet">
<metadata>
Created by potrace 1.10, written by Peter Selinger 2001-2011
</metadata>
<g transform="translate(0.000000,70.000000) scale(0.100000,-0.100000)"
fill="#FFFFFF" stroke="none">
<path d="M342 660 c-63 -39 -89 -123 -62 -196 16 -41 209 -234 235 -234 14 0
60 40 132 113 118 119 133 147 118 216 -8 38 -47 87 -86 106 -36 19 -109 19
-136 0 -19 -13 -24 -13 -50 0 -40 21 -112 19 -151 -5z m125 -16 l30 -6 -58
-57 c-58 -56 -72 -87 -45 -97 10 -4 5 -13 -17 -35 -23 -24 -32 -27 -39 -17
-18 25 -38 78 -38 98 0 34 29 79 63 100 34 21 55 24 104 14z m209 -14 c46 -29
71 -94 52 -138 -16 -38 -207 -234 -219 -226 -5 3 13 26 41 51 50 45 60 66 38
79 -6 4 -31 -14 -60 -44 -46 -49 -68 -63 -68 -44 0 4 23 30 50 57 49 48 62 75
38 75 -7 0 -36 -23 -65 -52 -29 -28 -56 -49 -60 -45 -4 4 17 31 45 60 29 29
52 58 52 65 0 24 -29 11 -79 -36 -29 -27 -54 -45 -57 -40 -8 12 33 56 69 74
15 9 37 24 49 36 14 14 23 17 31 9 16 -16 83 -13 97 4 20 24 -3 44 -31 27 -17
-11 -25 -11 -44 2 -34 22 -47 20 -80 -14 -25 -26 -55 -40 -55 -26 0 8 122 121
143 133 33 18 76 15 113 -7z"/>
<path d="M650 161 c0 -15 6 -21 21 -21 25 0 22 33 -4 38 -12 2 -17 -3 -17 -17z"/>
<path d="M17 154 c-7 -7 -4 -22 15 -97 8 -34 12 -38 36 -35 18 2 28 10 33 28
l6 25 8 -28 c6 -23 12 -28 34 -25 23 3 27 9 38 63 12 62 6 82 -21 72 -12 -5
-16 -21 -17 -59 l-1 -53 -12 40 c-15 47 -49 57 -54 15 -6 -53 -16 -53 -22 0
-3 39 -10 56 -20 58 -9 1 -19 0 -23 -4z"/>
<path d="M413 148 c-10 -13 -43 -104 -43 -120 0 -4 9 -8 20 -8 11 0 20 7 20
15 0 9 9 15 25 15 16 0 25 -6 25 -15 0 -9 9 -15 21 -15 18 0 20 4 14 32 -16
69 -32 103 -52 106 -11 2 -24 -3 -30 -10z m37 -54 c0 -8 -6 -14 -14 -14 -9 0
-12 7 -9 20 6 22 23 18 23 -6z"/>
<path d="M221 116 c-21 -25 -9 -79 19 -93 31 -14 70 -7 70 14 0 10 -6 12 -20
8 -11 -3 -27 -2 -36 3 -13 7 -10 11 19 16 45 8 54 22 31 47 -20 22 -66 25 -83
5z m45 -28 c-10 -6 -20 -7 -24 -3 -9 8 20 25 31 18 5 -3 2 -10 -7 -15z"/>
<path d="M533 123 c-8 -3 -13 -24 -13 -54 0 -42 3 -49 20 -49 17 0 20 7 20 40
0 29 4 40 15 40 11 0 15 -11 15 -40 0 -33 3 -40 20 -40 16 0 20 7 20 36 0 53
-15 74 -53 73 -18 0 -38 -3 -44 -6z"/>
<path d="M650 76 c0 -50 2 -56 21 -56 18 0 20 5 17 52 -2 41 -7 54 -20 56 -15
3 -18 -5 -18 -52z"/>
<path d="M721 117 c-6 -6 -11 -30 -11 -54 0 -36 3 -43 20 -43 17 0 20 7 20 40
0 30 4 40 16 40 12 0 15 -9 12 -37 -2 -32 0 -38 17 -41 18 -2 20 2 17 38 -3
32 -1 40 12 40 12 0 16 -10 16 -40 0 -33 3 -40 20 -40 17 0 20 7 20 44 0 24
-6 48 -12 54 -18 13 -133 13 -147 -1z"/>
<path d="M911 116 c-21 -25 -9 -79 19 -93 31 -14 70 -7 70 14 0 10 -6 12 -20
8 -11 -3 -27 -2 -36 3 -14 8 -9 11 24 17 45 7 53 22 24 48 -23 21 -65 22 -81
3z m45 -28 c-10 -6 -20 -7 -24 -3 -9 8 20 25 31 18 5 -3 2 -10 -7 -15z"/>
</g>
</svg>
